<svg width="249" height="242" viewBox="0 0 249 242" fill="none" xmlns="http://www.w3.org/2000/svg">
<path d="M0 106.747C0.641439 103.027 7.83983 97.2076 10.263 94.6448C19.1185 85.2479 29.043 76.7765 39.894 69.7645C67.4937 51.9318 103.61 43.9232 132.938 62.8948C152.092 75.2994 164.03 99.1118 159.861 121.536C154.997 147.733 124.724 168.129 98.5323 161.562C90.1936 159.479 82.4786 153.962 79.0041 146.114C75.6187 138.479 76.5274 129.474 79.6098 121.714C82.5854 114.204 88.002 108.277 91.6725 101.336C70.6832 107.832 51.529 131.449 44.1881 151.346C35.8672 173.859 39.0745 201.036 54.8966 219.1C65.1418 230.792 79.9128 238.071 95.2539 240.634C156.351 250.903 221.742 201.694 241.306 145.954C258.75 96.2821 245.796 38.2993 209.911 0C221.368 30.5042 217.947 66.2051 200.913 93.9863C202.392 71.7578 197.546 48.2834 183.167 31.2694C169.483 15.0919 148.386 6.33576 127.272 4.59165C63.6273 -0.676285 10.655 45.0444 0.0178352 106.747H0Z" fill="white"/>
</svg>
